<svg 
 xmlns="http://www.w3.org/2000/svg"
 xmlns:xlink="http://www.w3.org/1999/xlink"
 width="37.5px" height="37.5px">
<path fill-rule="evenodd"  stroke="rgb(33, 33, 33)" stroke-width="1px" stroke-linecap="butt" stroke-linejoin="miter" fill="none"
 d="M18.497,0.499 C28.438,0.499 36.496,8.558 36.496,18.499 C36.496,28.440 28.438,36.499 18.497,36.499 C8.556,36.499 0.498,28.440 0.498,18.499 C0.498,8.558 8.556,0.499 18.497,0.499 Z"/>
<path fill-rule="evenodd"  stroke="rgb(33, 33, 33)" stroke-width="1px" stroke-linecap="butt" stroke-linejoin="miter" fill="none"
 d="M24.704,18.999 L24.825,19.120 L24.499,19.446 L24.499,19.500 L24.446,19.500 L24.118,19.828 L23.997,19.706 L19.876,23.827 L19.168,23.120 L22.789,19.500 L12.500,19.500 L12.500,18.500 L22.791,18.500 L19.168,14.878 L19.876,14.171 L23.997,18.292 L24.118,18.170 L24.447,18.500 L24.499,18.500 L24.499,18.552 L24.825,18.878 L24.704,18.999 Z"/>
</svg>