<?xml version="1.0" encoding="utf-8"?>
<!-- Generator: Adobe Illustrator 16.0.0, SVG Export Plug-In . SVG Version: 6.00 Build 0)  -->
<!DOCTYPE svg PUBLIC "-//W3C//DTD SVG 1.1 Tiny//EN" "http://www.w3.org/Graphics/SVG/1.1/DTD/svg11-tiny.dtd">
<svg version="1.1" baseProfile="tiny" xmlns="http://www.w3.org/2000/svg" xmlns:xlink="http://www.w3.org/1999/xlink" x="0px"
	 y="0px" width="36px" height="36px" viewBox="0 0 36 36" xml:space="preserve">
<g id="Layer_1">
	<circle id="Ellipse_4_copy_3" cx="18" cy="18" r="18"/>
	<path id="_" display="none" fill="#FFFFFF" d="M25.5,17.5v1h-15v-1H25.5z M17.5,10.5h1v15h-1V10.5z"/>
</g>
<g id="Layer_2">
	<g>
		<path fill="none" stroke="#FFFFFF" stroke-miterlimit="10" d="M14.009,15.898v-5.254c-0.133-1.615,0.603-3.181,1.932-4.108
			c0.588-0.405,1.286-0.62,2-0.614c0.75-0.004,1.485,0.204,2.124,0.6l0.025,0.019c0.544,0.407,1.676,1.256,1.82,3.841
			c0.027,0.77,0.054,1.932,0.081,3.094l0.014,2.425"/>
		<path fill="none" stroke="#FFFFFF" stroke-miterlimit="10" d="M21.713,12.409h3.749c0.022,0.005,0.04,0.02,0.048,0.041L27,28.068
			c-0.014,0.009-0.031,0.012-0.048,0.01H9.029C9.009,28.067,8.998,28.046,9,28.023l1.6-15.583c0-0.006-0.018,0,0,0L21.713,12.409z"
			/>
	</g>
</g>
</svg>
