<?xml version="1.0" encoding="utf-8"?>
<!-- Generator: Adobe Illustrator 26.0.1, SVG Export Plug-In . SVG Version: 6.00 Build 0)  -->
<svg version="1.1" id="Layer_1" xmlns="http://www.w3.org/2000/svg" xmlns:xlink="http://www.w3.org/1999/xlink" x="0px" y="0px"
	 viewBox="0 0 36 36" style="enable-background:new 0 0 36 36;" xml:space="preserve">
<style type="text/css">
	.st0{fill:#303030;}
	.st1{fill-rule:evenodd;clip-rule:evenodd;fill:#303030;}
</style>
<g>
	<g>
		<path class="st0" d="M18,1c9.4,0,17,7.6,17,17s-7.6,17-17,17S1,27.4,1,18S8.7,1,18,1 M18,0C8.1,0,0,8.1,0,18s8.1,18,18,18
			c9.9,0,18-8.1,18-18S28,0,18,0L18,0z"/>
	</g>
	<g>
		<path class="st0" d="M23,9.7c1.7,0,3,1.3,3,3v10c0,1.7-1.3,3-3,3H13c-1.7,0-3-1.3-3-3v-10c0-1.7,1.3-3,3-3H23 M23,8.7H13
			c-2.2,0-4,1.8-4,4v10c0,2.2,1.8,4,4,4h10c2.2,0,4-1.8,4-4v-10C27,10.5,25.2,8.7,23,8.7L23,8.7z"/>
	</g>
	<g>
		<path class="st0" d="M18,14.2c1.9,0,3.5,1.6,3.5,3.5S20,21.2,18,21.2s-3.5-1.6-3.5-3.5S16.1,14.2,18,14.2 M18,13.2
			c-2.5,0-4.5,2-4.5,4.5c0,2.5,2,4.5,4.5,4.5c2.5,0,4.5-2,4.5-4.5C22.5,15.3,20.5,13.2,18,13.2L18,13.2z"/>
	</g>
	<g>
		<circle class="st0" cx="23.5" cy="12.6" r="1"/>
	</g>
</g>
</svg>
