<?xml version="1.0" encoding="utf-8"?>
<!DOCTYPE svg PUBLIC "-//W3C//DTD SVG 1.1//EN" "http://www.w3.org/Graphics/SVG/1.1/DTD/svg11.dtd">
<svg version="1.1" id="Layer_1" xmlns="http://www.w3.org/2000/svg" xmlns:xlink="http://www.w3.org/1999/xlink" x="0px" y="0px"
	 width="68px" height="68px" viewBox="0 0 68 68" enable-background="new 0 0 68 68" xml:space="preserve">
<path fill="#FFFFFF" stroke="#FFFFFF" stroke-width="2" d="M66.375,34c0,17.88-14.495,32.375-32.376,32.375
	C16.119,66.375,1.625,51.881,1.625,34c0-17.881,14.494-32.375,32.374-32.375C51.88,1.625,66.375,16.12,66.375,34z"/>
<path fill="#303030" d="M48.465,34l0.218,0.218l-0.588,0.589v0.093h-0.093l-0.59,0.591l-0.218-0.219L36.183,46.282l-1.271-1.272
	l10.11-10.11H19.317v-1.799h25.706L34.911,22.99l1.271-1.272l11.012,11.01l0.218-0.218l0.591,0.591h0.092v0.093l0.588,0.588
	L48.465,34z"/>
</svg>
