<svg 
 xmlns="http://www.w3.org/2000/svg"
 xmlns:xlink="http://www.w3.org/1999/xlink"
 width="32px" height="33px">
<path fill-rule="evenodd"  fill="rgb(255, 255, 255)"
 d="M16.001,0.695 C24.838,0.695 32.001,7.859 32.001,16.696 C32.001,25.532 24.838,32.696 16.001,32.696 C7.165,32.696 0.001,25.532 0.001,16.696 C0.001,7.859 7.165,0.695 16.001,0.695 Z"/>
<path fill-rule="evenodd"  fill="rgb(48, 48, 48)"
 d="M10.697,10.490 L22.010,21.803 L22.010,21.803 L21.303,22.510 L21.303,22.510 L9.990,11.197 L9.990,11.197 L10.697,10.490 L10.697,10.490 Z"/>
<path fill-rule="evenodd"  fill="rgb(48, 48, 48)"
 d="M22.010,11.197 L10.697,22.510 L10.697,22.510 L9.990,21.803 L9.990,21.803 L21.303,10.490 L21.303,10.490 L22.010,11.197 L22.010,11.197 Z"/>
</svg>