<?xml version="1.0" encoding="utf-8"?>
<!-- Generator: Adobe Illustrator 26.0.1, SVG Export Plug-In . SVG Version: 6.00 Build 0)  -->
<svg version="1.1" id="Layer_1" xmlns="http://www.w3.org/2000/svg" xmlns:xlink="http://www.w3.org/1999/xlink" x="0px" y="0px"
	 viewBox="0 0 36 36" style="enable-background:new 0 0 36 36;" xml:space="preserve">
<style type="text/css">
	.st0{fill:#303030;}
	.st1{fill-rule:evenodd;clip-rule:evenodd;fill:#303030;}
</style>
<g>
	<g>
		<path class="st0" d="M18,1c9.4,0,17,7.6,17,17s-7.6,17-17,17S1,27.4,1,18S8.6,1,18,1 M18,0C8.1,0,0,8.1,0,18c0,9.9,8.1,18,18,18
			c9.9,0,18-8.1,18-18C36,8.1,27.9,0,18,0L18,0z"/>
	</g>
	<g>
		<path class="st0" d="M25,12H11c-1.1,0-2,0.9-2,2v8c0,1.1,0.9,2,2,2h14c1.1,0,2-0.9,2-2v-8C27,12.9,26.1,12,25,12z M15.6,21.5v-7
			l6,3.5L15.6,21.5z"/>
	</g>
</g>
</svg>
