<?xml version="1.0" encoding="utf-8"?>
<!-- Generator: Adobe Illustrator 26.0.1, SVG Export Plug-In . SVG Version: 6.00 Build 0)  -->
<svg version="1.1" id="Layer_1" xmlns="http://www.w3.org/2000/svg" xmlns:xlink="http://www.w3.org/1999/xlink" x="0px" y="0px"
	 viewBox="0 0 36 36" style="enable-background:new 0 0 36 36;" xml:space="preserve">
<style type="text/css">
	.st0{fill:#303030;}
	.st1{fill-rule:evenodd;clip-rule:evenodd;fill:#303030;}
</style>
<g>
	<g>
		<path class="st0" d="M18.1,1c9.4,0,17,7.6,17,17s-7.6,17-17,17s-17-7.6-17-17S8.7,1,18.1,1 M18.1,0c-9.9,0-18,8.1-18,18
			s8.1,18,18,18c9.9,0,18-8.1,18-18S28,0,18.1,0L18.1,0z"/>
	</g>
	<g>
		<path class="st1" d="M19.1,14v-2.2c0-0.7,0.4-0.8,0.8-0.8c0.3,0,2.2,0,2.2,0V8h-2.4c-2.9,0-3.6,2.2-3.6,3.6V14h-2v2.1V17h2
			c0,3.9,0,11,0,11h3c0,0,0-7.2,0-11h3v-3H19.1z"/>
	</g>
</g>
</svg>
