<?xml version="1.0" encoding="utf-8"?>
<!DOCTYPE svg PUBLIC "-//W3C//DTD SVG 1.1 Tiny//EN" "http://www.w3.org/Graphics/SVG/1.1/DTD/svg11-tiny.dtd">
<svg version="1.1" baseProfile="tiny" id="Layer_1" xmlns="http://www.w3.org/2000/svg" xmlns:xlink="http://www.w3.org/1999/xlink"
	 x="0px" y="0px" width="127px" height="20px" viewBox="0 0 127 20" xml:space="preserve">
<path fill="#3c3c3c" id="Logo_Pana" d="M125.62,17.727c-0.952,1.068-2.227,1.795-3.63,2.07c-0.933,0.202-1.893,0.25-2.84,0.143
	c-1.271-0.119-2.481-0.605-3.48-1.4c-0.84-0.633-1.536-1.439-2.04-2.363c-0.405-0.715-0.677-1.496-0.8-2.309
	c-0.192-1.129-0.138-2.285,0.16-3.391c0.607-2.556,2.639-4.529,5.209-5.065c1.41-0.32,2.879-0.284,4.271,0.105
	c1.003,0.256,1.92,0.774,2.659,1.5c0.479,0.452,0.876,0.985,1.171,1.574c0.361,0.699,0.527,1.483,0.479,2.27h-4.629
	c-0.086-0.612-0.408-1.166-0.9-1.541c-0.621-0.507-1.501-0.551-2.17-0.108c-0.467,0.287-0.809,0.737-0.96,1.263
	c-0.39,1.245-0.411,2.575-0.06,3.831c0.137,0.527,0.416,1.008,0.81,1.385c0.438,0.443,1.064,0.646,1.681,0.547
	c0.379-0.054,0.725-0.247,0.969-0.543c0.272-0.301,0.449-0.676,0.51-1.076c0.049-0.279,0.082-0.561,0.101-0.844h4.88
	c0.116,1.453-0.389,2.889-1.39,3.949 M106.96,0h5.069v3.687h-5.069V0z M106.96,19.541h5.069V5.586h-5.069v13.957V19.541z
	 M96.48,7.058c0.623-0.574,1.332-1.048,2.1-1.407c1.242-0.618,2.678-0.728,4-0.307c1.463,0.429,2.603,1.578,3.02,3.044
	c0.221,0.693,0.33,1.417,0.32,2.145v9.008h-5.37v-8.1c-0.001-0.258-0.038-0.513-0.11-0.76c-0.125-0.45-0.449-0.818-0.879-1
	C98.609,9.265,97.497,9.644,97,10.557c-0.212,0.366-0.319,0.785-0.311,1.209v7.776H91.48V5.585h4.879L96.48,7.058z M36.59,7.058
	c0.627-0.574,1.339-1.048,2.11-1.407c1.243-0.618,2.678-0.729,4-0.307c1.463,0.429,2.603,1.578,3.021,3.044
	c0.216,0.694,0.324,1.417,0.32,2.145v9.008h-5.38v-8.1c0.004-0.258-0.033-0.514-0.11-0.76c-0.125-0.447-0.444-0.814-0.87-1
	c-0.951-0.417-2.063-0.038-2.561,0.875c-0.215,0.365-0.325,0.783-0.32,1.209v7.776h-5.21V5.585h4.89L36.59,7.058z M68.5,14.404
	c0.371,0.064,0.734,0.158,1.09,0.281c0.307,0.104,0.533,0.364,0.59,0.683c0.082,0.345-0.02,0.707-0.27,0.958
	c-0.238,0.256-0.555,0.424-0.9,0.477c-0.457,0.08-0.928,0.033-1.359-0.134c-0.21-0.075-0.403-0.19-0.57-0.338
	c-0.231-0.189-0.398-0.445-0.48-0.733c-0.068-0.242-0.102-0.492-0.1-0.744h-4.96v0.301c0,0.457,0.081,0.91,0.24,1.338
	c0.229,0.643,0.605,1.224,1.1,1.693c0.633,0.619,1.409,1.069,2.261,1.313c1.738,0.531,3.576,0.65,5.369,0.346
	c0.842-0.125,1.654-0.399,2.4-0.809c0.338-0.176,0.653-0.391,0.939-0.643c1.334-1.143,1.847-2.976,1.301-4.645
	c-0.182-0.617-0.535-1.168-1.021-1.589c-0.644-0.586-1.413-1.018-2.25-1.261c-0.19-0.057-0.351-0.1-0.54-0.159
	c-1.004-0.293-2.025-0.517-3.061-0.672c-0.299-0.045-0.539-0.093-0.83-0.163c-0.127-0.031-0.25-0.074-0.369-0.128
	c-0.307-0.149-0.438-0.514-0.301-0.825c0.012-0.014,0.018-0.031,0.021-0.048c0.151-0.291,0.415-0.507,0.729-0.6
	c0.537-0.169,1.113-0.155,1.641,0.04c0.535,0.187,0.883,0.706,0.85,1.272h4.771c0.005-0.575-0.095-1.145-0.29-1.685
	c-0.183-0.55-0.52-1.036-0.971-1.4c-0.385-0.316-0.816-0.57-1.279-0.752c-0.447-0.183-0.914-0.317-1.391-0.4
	c-1.12-0.208-2.262-0.275-3.399-0.2c-0.651,0.037-1.298,0.134-1.931,0.29C64.664,5.67,63.855,6.07,63.17,6.636
	c-0.601,0.477-1.047,1.121-1.28,1.852c-0.118,0.328-0.182,0.672-0.19,1.021c-0.031,0.579,0.061,1.159,0.27,1.7
	c0.36,0.98,1.12,1.762,2.091,2.148c0.474,0.199,0.966,0.352,1.469,0.455c1.041,0.221,1.931,0.394,2.971,0.578 M9.24,13.508H5.76
	v-4.58h2.26c0.43,0,0.79-0.011,1.22-0.035c0.579-0.025,1.113-0.321,1.44-0.8c0.182-0.251,0.299-0.543,0.34-0.85
	c0.036-0.257,0.043-0.518,0.02-0.776c-0.079-1-0.907-1.773-1.91-1.784H5.76v14.844H0.01V0h9.4c0.37,0,0.69,0.009,1.06,0.029
	c2.464,0.115,4.644,1.631,5.61,3.9c0.542,1.158,0.75,2.444,0.6,3.714c-0.235,2.729-2.208,4.992-4.88,5.593
	c-0.839,0.195-1.698,0.291-2.56,0.287 M84.75,5.314c-0.51-0.083-1.024-0.125-1.541-0.123c-0.512-0.002-1.023,0.039-1.529,0.123
	c-1.502,0.222-2.891,0.931-3.949,2.019c-1.193,1.15-1.918,2.702-2.031,4.354c-0.104,1.008-0.016,2.025,0.26,3
	c0.381,1.504,1.254,2.838,2.48,3.787c0.781,0.63,1.699,1.068,2.68,1.278c0.686,0.159,1.387,0.237,2.09,0.231
	c0.707,0.004,1.412-0.073,2.101-0.231c0.978-0.21,1.894-0.648,2.671-1.278l-2.91-3.27c-0.436,1.027-1.621,1.508-2.648,1.072
	c-0.482-0.205-0.867-0.59-1.072-1.072c-0.187-0.43-0.314-0.883-0.38-1.346c-0.149-0.932-0.13-1.883,0.06-2.808
	c0.085-0.479,0.266-0.938,0.531-1.348c0.566-0.913,1.765-1.193,2.678-0.627c0.021,0.013,0.041,0.026,0.062,0.04
	c0.228,0.153,0.418,0.353,0.56,0.587c0.27,0.409,0.453,0.866,0.541,1.348c0.18,0.926,0.199,1.875,0.06,2.808
	c-0.069,0.464-0.2,0.916-0.39,1.346l2.91,3.27c1.229-0.947,2.104-2.281,2.479-3.787c0.274-0.975,0.365-1.991,0.271-3
	c-0.123-1.65-0.845-3.2-2.031-4.354C87.638,6.249,86.251,5.54,84.75,5.314 M60.99,18.441c-0.07-1.15-0.12-2.125-0.14-3.278
	c-0.03-1.515-0.04-2.795-0.06-4.31c0.004-0.776-0.094-1.55-0.29-2.3c-0.229-0.997-0.868-1.85-1.76-2.349
	c-0.514-0.306-1.075-0.524-1.66-0.648c-1.852-0.43-3.772-0.469-5.64-0.115c-0.526,0.09-1.041,0.244-1.53,0.457
	c-1.18,0.485-2.07,1.489-2.41,2.719c-0.147,0.464-0.192,0.956-0.13,1.44c0.008,0.089,0.032,0.176,0.07,0.257L52,10.428
	c-0.015-0.283,0.025-0.566,0.12-0.833c0.133-0.414,0.451-0.743,0.86-0.889c0.583-0.23,1.229-0.242,1.82-0.031
	c0.402,0.128,0.711,0.454,0.82,0.862c0.081,0.253,0.04,0.529-0.11,0.749c-0.126,0.189-0.308,0.335-0.52,0.418
	c-0.14,0.053-0.25,0.092-0.39,0.131c-0.64,0.175-1.18,0.3-1.82,0.408c-0.52,0.087-0.95,0.169-1.46,0.272
	c-0.653,0.135-1.298,0.309-1.93,0.522c-0.587,0.191-1.124,0.513-1.57,0.94c-0.598,0.559-0.98,1.309-1.08,2.121
	c-0.08,0.54-0.06,1.091,0.06,1.625c0.275,1.408,1.313,2.545,2.69,2.947c1.473,0.465,3.063,0.383,4.48-0.232
	c0.699-0.283,1.313-0.744,1.78-1.336l-0.33-2.4c-0.211,0.351-0.525,0.627-0.9,0.791c-0.34,0.16-0.706,0.258-1.08,0.292
	c-0.313,0.034-0.628,0.008-0.93-0.08c-0.247-0.069-0.469-0.208-0.64-0.399c-0.15-0.164-0.251-0.367-0.29-0.586
	c-0.079-0.341,0.037-0.697,0.3-0.926c0.17-0.149,0.367-0.266,0.58-0.344c0.521-0.2,0.98-0.352,1.521-0.51
	c0.621-0.18,1.227-0.41,1.81-0.689c0.062,0.484,0.059,0.975-0.01,1.457c-0.043,0.354-0.166,0.694-0.36,0.994l0.33,2.4
	c0.1,0.34,0.19,0.625,0.3,0.961c0.058,0.175,0.15,0.336,0.27,0.477h5.02C61.134,19.209,61.014,18.831,60.99,18.441 M30.6,18.441
	c-0.08-1.151-0.12-2.125-0.14-3.279c-0.03-1.516-0.05-2.795-0.06-4.311c-0.001-0.775-0.099-1.548-0.29-2.3
	c-0.229-0.996-0.868-1.85-1.76-2.349c-0.518-0.306-1.082-0.524-1.67-0.648c-1.852-0.43-3.772-0.469-5.64-0.115
	C20.513,5.532,20,5.685,19.51,5.897c-1.178,0.489-2.066,1.491-2.41,2.719c-0.148,0.465-0.192,0.957-0.13,1.44
	c0.011,0.089,0.039,0.176,0.08,0.257l4.55,0.114c-0.012-0.283,0.032-0.566,0.13-0.833c0.132-0.411,0.446-0.738,0.85-0.889
	c0.583-0.23,1.229-0.242,1.82-0.031c0.403,0.131,0.714,0.454,0.83,0.862c0.083,0.254,0.038,0.533-0.12,0.749
	c-0.124,0.191-0.306,0.338-0.52,0.418c-0.127,0.051-0.257,0.096-0.39,0.131c-0.599,0.168-1.207,0.305-1.82,0.408
	c-0.51,0.087-0.94,0.169-1.45,0.273c-0.657,0.134-1.305,0.309-1.94,0.521c-0.585,0.189-1.12,0.512-1.56,0.941
	c-0.604,0.554-0.991,1.306-1.09,2.119c-0.077,0.541-0.053,1.093,0.07,1.625c0.271,1.41,1.311,2.549,2.69,2.948
	c1.469,0.466,3.057,0.383,4.47-0.233c0.701-0.28,1.315-0.741,1.78-1.336l-0.32-2.399c-0.214,0.349-0.527,0.624-0.9,0.791
	c-0.34,0.158-0.706,0.257-1.08,0.292c-0.312,0.035-0.628,0.008-0.93-0.08c-0.248-0.067-0.471-0.207-0.64-0.4
	c-0.153-0.162-0.257-0.365-0.3-0.586c-0.075-0.342,0.044-0.697,0.311-0.925c0.167-0.149,0.36-0.267,0.57-0.344
	c0.53-0.2,0.98-0.351,1.52-0.509c0.625-0.178,1.234-0.409,1.82-0.69c0.057,0.484,0.053,0.974-0.01,1.457
	c-0.043,0.354-0.166,0.694-0.36,0.994l0.32,2.399c0.1,0.34,0.19,0.627,0.3,0.961c0.062,0.176,0.157,0.338,0.28,0.478h5.021
	c-0.215-0.328-0.336-0.708-0.35-1.101"/>
</svg>
