<?xml version="1.0" encoding="utf-8"?>
<!-- Generator: Adobe Illustrator 16.0.0, SVG Export Plug-In . SVG Version: 6.00 Build 0)  -->
<!DOCTYPE svg PUBLIC "-//W3C//DTD SVG 1.1//EN" "http://www.w3.org/Graphics/SVG/1.1/DTD/svg11.dtd">
<svg version="1.1" id="Calque_1" xmlns="http://www.w3.org/2000/svg" xmlns:xlink="http://www.w3.org/1999/xlink" x="0px" y="0px"
	 width="264.772px" height="135.303px" viewBox="168.182 236.364 264.772 135.303"
	 enable-background="new 168.182 236.364 264.772 135.303" xml:space="preserve">
<path fill="#FFFFFF" d="M176.44,307.651h8.257v-24.242h8.258v-6.894h-24.772v6.894h8.258V307.651z M216.97,307.651v-14.772
	c0-2.954-0.606-5.379-1.743-7.121c-1.136-1.742-3.105-2.651-5.757-2.651c-1.667,0-3.03,0.303-4.167,0.984
	c-1.137,0.683-2.197,1.364-3.03,2.121l0.379-4.091v-7.803h-8.258v33.409h8.258v-15.758c0.605-0.605,1.212-1.061,1.742-1.363
	s1.137-0.455,1.895-0.455c0.833,0,1.438,0.228,1.817,0.758s0.606,1.516,0.606,3.106v13.712h8.258V307.651z M220.379,289.015
	c-1.137,1.894-1.667,4.091-1.667,6.666c0,2.652,0.53,4.925,1.667,6.818c1.061,1.895,2.575,3.334,4.47,4.318
	c1.894,0.985,3.939,1.516,6.287,1.516c1.364,0,2.804-0.228,4.395-0.683c1.591-0.454,3.03-1.136,4.318-2.045l-2.652-4.925
	c-0.833,0.455-1.666,0.834-2.5,1.061c-0.757,0.228-1.591,0.379-2.424,0.379c-0.984,0-1.894-0.151-2.803-0.53
	s-1.667-0.984-2.273-1.894c-0.227-0.379-0.454-0.833-0.605-1.439h13.863c0.076-0.303,0.151-0.758,0.228-1.439
	s0.151-1.363,0.151-2.045c0-2.122-0.379-4.092-1.137-5.834c-0.757-1.742-1.894-3.182-3.484-4.166
	c-1.516-1.062-3.485-1.592-5.909-1.592c-1.97,0-3.788,0.53-5.53,1.516C222.879,285.681,221.44,287.121,220.379,289.015z
	 M226.819,291.894c0.378-0.909,0.908-1.591,1.591-1.97c0.605-0.379,1.287-0.606,2.045-0.606c1.212,0,2.121,0.379,2.576,1.061
	c0.454,0.682,0.682,1.516,0.682,2.425h-7.197C226.591,292.5,226.666,292.197,226.819,291.894z M270.682,300.758h-11.818v-24.242
	h-8.258v31.136h20.076V300.758z M273.031,307.651h8.258v-23.939h-8.258V307.651z M277.121,280.758c1.288,0,2.349-0.379,3.182-1.212
	c0.833-0.758,1.212-1.742,1.212-2.955c0-1.212-0.379-2.196-1.212-2.954s-1.894-1.137-3.182-1.137s-2.349,0.379-3.182,1.137
	c-0.834,0.758-1.213,1.742-1.213,2.954c0,1.213,0.379,2.197,1.213,2.955C274.773,280.379,275.833,280.758,277.121,280.758z
	 M307.121,283.712h-7.879l-2.576,10.455c-0.303,1.212-0.605,2.424-0.833,3.637c-0.303,1.212-0.606,2.5-0.833,3.863h-0.228
	c-0.303-1.288-0.606-2.576-0.833-3.863c-0.304-1.213-0.606-2.425-0.834-3.637l-2.575-10.455h-8.258l7.879,23.939h9.47
	L307.121,283.712z M312.197,280.758c1.288,0,2.349-0.379,3.182-1.212c0.834-0.758,1.213-1.742,1.213-2.955
	c0-1.212-0.379-2.196-1.213-2.954c-0.833-0.758-1.894-1.137-3.182-1.137s-2.349,0.379-3.182,1.137s-1.212,1.742-1.212,2.954
	c0,1.213,0.379,2.197,1.212,2.955C309.848,280.379,310.908,280.758,312.197,280.758z M308.106,307.651h8.258v-23.939h-8.258V307.651
	z M327.727,291.969c0.606-0.605,1.212-1.061,1.742-1.363c0.531-0.303,1.137-0.455,1.895-0.455c0.833,0,1.439,0.228,1.818,0.758
	s0.605,1.516,0.605,3.106v13.712h8.258v-14.772c0-2.955-0.606-5.379-1.742-7.121c-1.137-1.743-3.106-2.652-5.758-2.652
	c-1.667,0-3.03,0.379-4.318,1.062c-1.212,0.682-2.349,1.515-3.258,2.424h-0.227l-0.606-2.879h-6.742v23.939h8.258v-15.758H327.727z
	 M213.712,317.121h-8.561l-1.137,3.334c-0.227,0.682-0.454,1.363-0.682,2.045s-0.53,1.364-0.682,2.046h-0.228
	c-0.303-0.682-0.605-1.364-0.984-2.046c-0.304-0.682-0.606-1.363-0.985-2.045l-1.742-3.334h-8.788l6.818,11.516l-5.682,9.772v-4.242
	h-12.349v-5.53h10.151v-6.894h-10.151v-4.925h11.894v-6.894h-20.151v31.136h27.651l1.364-3.333c0.227-0.682,0.53-1.363,0.833-2.121
	c0.303-0.682,0.53-1.363,0.833-2.046h0.228c0.379,0.683,0.682,1.364,1.061,2.046s0.682,1.363,1.061,2.045l1.895,3.334h8.787
	l-7.196-11.516L213.712,317.121z M237.045,335.758c0.985-1.97,1.439-4.242,1.439-7.046c0-2.424-0.379-4.621-1.136-6.438
	c-0.758-1.818-1.818-3.258-3.258-4.243c-1.364-0.984-3.03-1.515-4.925-1.515c-1.212,0-2.348,0.228-3.484,0.758
	s-2.121,1.212-3.03,2.045h-0.228l-0.605-2.197h-6.667v32.425h8.258v-6.591l-0.304-3.637c0.758,0.758,1.591,1.363,2.5,1.742
	s1.895,0.606,2.879,0.606c1.667,0,3.334-0.53,4.849-1.516C234.849,339.167,236.061,337.651,237.045,335.758z M229.545,332.5
	c-0.303,0.909-0.757,1.516-1.287,1.895c-0.531,0.379-1.137,0.605-1.743,0.605c-0.53,0-1.061-0.075-1.591-0.227
	c-0.53-0.152-1.061-0.455-1.515-0.909V325c0.53-0.605,1.061-1.061,1.591-1.363c0.53-0.228,1.061-0.379,1.666-0.379
	c0.758,0,1.364,0.228,1.818,0.606c0.53,0.379,0.834,0.984,1.137,1.817c0.228,0.834,0.379,1.895,0.379,3.183
	C230,330.379,229.849,331.591,229.545,332.5z M240.985,335.909c1.061,1.895,2.576,3.333,4.47,4.318
	c1.895,0.984,3.939,1.516,6.288,1.516c1.363,0,2.803-0.228,4.394-0.683c1.591-0.454,3.03-1.136,4.318-2.045l-2.651-4.925
	c-0.833,0.455-1.667,0.834-2.5,1.061c-0.758,0.228-1.591,0.379-2.424,0.379c-0.985,0-1.895-0.151-2.804-0.53
	s-1.666-0.984-2.272-1.894c-0.228-0.379-0.454-0.833-0.606-1.439h13.864c0.075-0.303,0.151-0.758,0.228-1.439
	c0.075-0.682,0.151-1.363,0.151-2.046c0-2.121-0.379-4.091-1.137-5.833s-1.894-3.182-3.484-4.167
	c-1.516-1.061-3.485-1.591-5.909-1.591c-1.97,0-3.788,0.53-5.53,1.516c-1.743,1.061-3.183,2.5-4.318,4.318
	c-1.137,1.894-1.667,4.091-1.667,6.666C239.319,331.743,239.849,334.015,240.985,335.909z M247.424,325.303
	c0.379-0.909,0.909-1.592,1.591-1.97c0.606-0.379,1.288-0.606,2.046-0.606c1.212,0,2.121,0.379,2.575,1.061
	c0.455,0.682,0.683,1.516,0.683,2.424h-7.197C247.197,325.909,247.349,325.606,247.424,325.303z M279.319,324.091l1.363-7.121
	c-0.303-0.151-0.682-0.303-1.212-0.379c-0.455-0.075-1.061-0.151-1.818-0.151c-1.212,0-2.425,0.379-3.637,1.137
	s-2.272,1.97-3.182,3.561h-0.228L270,317.046h-6.742v23.939h8.257v-13.334c0.606-1.515,1.364-2.575,2.273-3.105
	c0.908-0.606,1.817-0.909,2.727-0.909c0.53,0,0.985,0.075,1.439,0.151C278.485,323.939,278.94,324.015,279.319,324.091z
	 M285.152,305.909c-1.288,0-2.349,0.379-3.182,1.137c-0.834,0.758-1.213,1.742-1.213,2.954s0.379,2.197,1.213,2.955
	c0.833,0.757,1.894,1.212,3.182,1.212s2.349-0.379,3.182-1.212c0.833-0.758,1.212-1.743,1.212-2.955s-0.379-2.196-1.212-2.954
	C287.575,306.288,286.515,305.909,285.152,305.909z M281.061,341.06h8.258v-23.939h-8.258V341.06z M303.561,341.667
	c1.363,0,2.803-0.228,4.394-0.682c1.591-0.455,3.03-1.137,4.318-2.046l-2.651-4.924c-0.834,0.454-1.667,0.833-2.5,1.061
	c-0.758,0.228-1.591,0.379-2.425,0.379c-0.984,0-1.894-0.151-2.803-0.53s-1.667-0.985-2.272-1.895
	c-0.228-0.379-0.455-0.833-0.606-1.439h13.863c0.076-0.303,0.152-0.757,0.228-1.439c0.076-0.682,0.151-1.363,0.151-2.045
	c0-2.121-0.379-4.091-1.136-5.833c-0.758-1.743-1.895-3.183-3.485-4.167c-1.515-1.061-3.484-1.591-5.909-1.591
	c-1.97,0-3.788,0.53-5.53,1.515c-1.742,1.061-3.182,2.5-4.317,4.318c-1.137,1.894-1.667,4.091-1.667,6.667
	c0,2.651,0.53,4.924,1.667,6.818c1.061,1.894,2.575,3.333,4.47,4.317C299.166,341.212,301.287,341.667,303.561,341.667z
	 M299.318,325.303c0.379-0.909,0.909-1.592,1.591-1.97c0.606-0.379,1.288-0.606,2.046-0.606c1.212,0,2.121,0.379,2.576,1.061
	c0.454,0.682,0.682,1.516,0.682,2.424h-7.197C299.091,325.909,299.166,325.606,299.318,325.303z M329.015,324.318
	c0.379,0.53,0.606,1.516,0.606,3.106v13.712h8.257v-14.772c0-2.955-0.605-5.379-1.742-7.121c-1.136-1.743-3.106-2.652-5.758-2.652
	c-1.666,0-3.03,0.379-4.317,1.061c-1.213,0.683-2.349,1.516-3.258,2.425h-0.228l-0.606-2.879h-6.742v23.939h8.258v-15.758
	c0.606-0.605,1.212-1.061,1.742-1.363s1.137-0.455,1.895-0.455C328.031,323.56,328.636,323.788,329.015,324.318z M355.682,341.06
	c1.439-0.379,2.727-1.136,3.939-2.196l-3.183-5.379c-0.605,0.379-1.212,0.758-1.817,1.061c-0.683,0.303-1.288,0.454-1.97,0.454
	c-0.834,0-1.667-0.227-2.349-0.682c-0.682-0.454-1.212-1.137-1.667-2.045c-0.379-0.909-0.605-1.97-0.605-3.183
	c0-1.212,0.227-2.272,0.605-3.182s0.909-1.591,1.667-2.045c0.758-0.455,1.591-0.683,2.651-0.683c0.454,0,0.909,0.076,1.288,0.228
	s0.909,0.455,1.363,0.909l3.863-5.303c-0.757-0.682-1.666-1.212-2.651-1.591c1.591-0.151,3.03-0.455,4.395-0.985
	c2.045-0.758,3.712-1.742,4.849-3.105c1.136-1.288,1.666-2.804,1.666-4.546c0-2.197-0.833-3.788-2.5-4.772
	c-1.666-0.985-3.939-1.439-6.97-1.439h-3.561c-1.212,0-2.045-0.076-2.575-0.303c-0.53-0.228-0.758-0.606-0.758-1.137
	c0-0.379,0.075-0.606,0.151-0.758s0.228-0.379,0.454-0.605c0.531,0.151,1.062,0.227,1.439,0.227
	c0.455,0.076,0.834,0.076,1.213,0.076c1.817,0,3.409-0.303,4.924-0.833c1.439-0.531,2.651-1.364,3.485-2.576
	c0.833-1.137,1.287-2.728,1.287-4.546c0-0.454-0.075-0.909-0.151-1.363c-0.075-0.454-0.151-0.833-0.228-1.137h3.485v-5.909h-9.091
	c-0.606-0.227-1.212-0.303-1.818-0.454c-0.682-0.076-1.288-0.151-1.97-0.151c-1.742,0-3.409,0.303-5,0.909
	c-1.591,0.605-2.803,1.591-3.788,2.879c-0.984,1.287-1.439,2.954-1.439,4.924c0,1.363,0.304,2.576,0.985,3.637
	s1.439,1.894,2.272,2.5v0.227c-0.833,0.606-1.439,1.288-1.97,2.046c-0.53,0.833-0.758,1.591-0.758,2.424
	c0,0.985,0.228,1.818,0.682,2.5c0.455,0.683,0.985,1.213,1.592,1.667v0.228c-1.061,0.605-1.895,1.212-2.5,1.97
	c-0.606,0.758-0.834,1.591-0.834,2.575c0,1.439,0.455,2.576,1.364,3.485c0.909,0.833,2.121,1.515,3.636,1.894
	c0.076,0,0.076,0,0.151,0c-0.984,0.228-1.894,0.606-2.727,1.061c-1.97,0.985-3.561,2.425-4.697,4.318
	c-1.212,1.895-1.818,4.167-1.818,6.818s0.53,4.924,1.591,6.818c1.061,1.894,2.5,3.333,4.318,4.318
	c1.818,0.984,3.863,1.515,6.137,1.515C352.878,341.667,354.242,341.439,355.682,341.06z M352.652,289.394
	c0.454-0.53,1.136-0.758,1.894-0.758c0.53,0,0.985,0.151,1.363,0.379c0.379,0.227,0.683,0.605,0.909,1.061
	c0.228,0.454,0.304,1.061,0.304,1.818c0,0.757-0.076,1.363-0.304,1.894c-0.227,0.53-0.53,0.833-0.909,1.137
	c-0.378,0.227-0.833,0.379-1.363,0.379s-0.984-0.152-1.363-0.379c-0.379-0.228-0.682-0.606-0.909-1.137s-0.304-1.137-0.304-1.894
	C351.894,290.758,352.121,289.925,352.652,289.394z M350.606,309.394c0.151-0.228,0.379-0.53,0.682-0.834
	c0.379,0.076,0.758,0.151,1.288,0.228s1.212,0.076,2.197,0.076h1.894c0.985,0,1.818,0.075,2.349,0.227s0.833,0.53,0.833,1.213
	c0,0.454-0.227,0.833-0.605,1.212c-0.379,0.303-0.985,0.605-1.667,0.758c-0.682,0.151-1.515,0.227-2.424,0.227
	c-1.364,0-2.5-0.151-3.409-0.53s-1.288-0.909-1.288-1.666C350.378,309.925,350.454,309.621,350.606,309.394z M375.757,318.106
	c-1.515-1.061-3.484-1.591-5.909-1.591c-1.97,0-3.787,0.53-5.53,1.515c-1.742,1.061-3.182,2.5-4.317,4.318
	c-1.137,1.895-1.667,4.091-1.667,6.667c0,2.651,0.53,4.924,1.667,6.818c1.061,1.894,2.575,3.333,4.469,4.317
	c1.895,0.985,3.939,1.516,6.288,1.516c1.364,0,2.804-0.228,4.395-0.682c1.591-0.455,3.03-1.137,4.317-2.046l-2.651-4.924
	c-0.833,0.454-1.666,0.833-2.5,1.061c-0.757,0.228-1.591,0.379-2.424,0.379c-0.985,0-1.894-0.151-2.803-0.53
	s-1.667-0.985-2.273-1.895c-0.227-0.379-0.454-0.833-0.605-1.439h13.863c0.076-0.303,0.151-0.757,0.228-1.439
	c0.075-0.682,0.151-1.363,0.151-2.045c0-2.121-0.379-4.091-1.137-5.833C378.408,320.53,377.273,319.167,375.757,318.106z
	 M366.136,326.212c0.076-0.303,0.151-0.605,0.303-0.908c0.379-0.909,0.909-1.592,1.592-1.97c0.605-0.379,1.287-0.606,2.045-0.606
	c1.212,0,2.121,0.379,2.576,1.061c0.454,0.682,0.682,1.516,0.682,2.424H366.136z M227.197,236.364h-59.015v3.787h59.015V236.364z"/>
<g>
	<g>
		<path fill="#303030" d="M231.061,363.636h21.212v-0.758h-21.212V363.636z M271.061,362.955c-0.228,1.061-0.455,2.121-0.606,3.182
			c-0.228,1.061-0.379,2.121-0.605,3.182h-0.152c-0.227-1.061-0.454-2.121-0.757-3.182c-0.228-1.061-0.53-2.121-0.758-3.182
			l-3.03-11.439h-1.591l-3.03,11.439c-0.228,1.061-0.455,2.121-0.758,3.182c-0.228,1.061-0.53,2.121-0.682,3.182h-0.151
			c-0.228-1.061-0.455-2.121-0.683-3.182c-0.227-1.061-0.454-2.121-0.605-3.182l-2.425-11.439h-1.666l4.394,19.696h1.742
			l3.409-13.257c0.152-0.758,0.304-1.516,0.53-2.197c0.152-0.682,0.379-1.439,0.53-2.197h0.152c0.151,0.758,0.303,1.516,0.53,2.197
			c0.151,0.682,0.379,1.439,0.53,2.197l3.484,13.257h1.818L275,351.515h-1.591L271.061,362.955z M285.909,357.273
			c-0.834-0.531-1.818-0.758-2.955-0.758c-1.061,0-2.121,0.303-3.03,0.909c-0.984,0.605-1.742,1.515-2.349,2.651
			c-0.605,1.136-0.909,2.5-0.909,4.015c0,1.591,0.304,2.955,0.909,4.091c0.606,1.137,1.439,1.97,2.425,2.576
			c0.984,0.606,2.121,0.909,3.409,0.909c1.061,0,1.894-0.151,2.651-0.455c0.682-0.303,1.363-0.605,1.97-0.984l-0.606-1.137
			c-0.53,0.379-1.136,0.683-1.742,0.909c-0.606,0.228-1.288,0.379-2.121,0.379c-0.985,0-1.895-0.228-2.728-0.758
			s-1.439-1.212-1.894-2.121c-0.455-0.833-0.682-1.894-0.758-3.105h10.303c0.076-0.151,0.076-0.379,0.076-0.606s0-0.379,0-0.606
			c0-1.363-0.228-2.575-0.682-3.561C287.424,358.56,286.742,357.803,285.909,357.273z M278.182,363.03
			c0.076-0.984,0.303-1.818,0.682-2.575c0.455-0.909,1.061-1.591,1.818-2.046c0.758-0.454,1.515-0.682,2.272-0.682
			c1.288,0,2.272,0.454,3.03,1.363s1.137,2.197,1.137,3.939H278.182z M293.94,370.227c-0.076,0-0.151,0-0.228,0
			c-0.151,0-0.303-0.076-0.455-0.228c-0.151-0.151-0.151-0.379-0.151-0.757v-19.546h-1.591v19.394c0,0.53,0.076,0.985,0.228,1.364
			s0.379,0.605,0.606,0.833c0.303,0.151,0.605,0.303,1.061,0.303c0.227,0,0.454,0,0.605-0.075c0.151-0.076,0.304-0.076,0.455-0.151
			l-0.228-1.213C294.166,370.151,294.015,370.227,293.94,370.227z M305.531,369.773c-0.606,0.303-1.364,0.454-2.122,0.454
			c-0.984,0-1.894-0.228-2.651-0.758c-0.757-0.53-1.363-1.212-1.742-2.196c-0.454-0.909-0.606-2.046-0.606-3.258
			s0.228-2.349,0.683-3.258c0.454-0.909,1.061-1.667,1.817-2.197c0.758-0.53,1.592-0.757,2.576-0.757
			c0.682,0,1.288,0.151,1.818,0.454s0.984,0.606,1.515,1.061l0.834-1.061c-0.53-0.454-1.061-0.833-1.743-1.212
			c-0.682-0.379-1.515-0.53-2.5-0.53c-1.212,0-2.272,0.303-3.257,0.909c-0.985,0.605-1.818,1.439-2.425,2.575
			c-0.605,1.137-0.908,2.5-0.908,4.091s0.303,2.955,0.833,4.091c0.605,1.137,1.363,1.97,2.349,2.576
			c0.984,0.606,2.121,0.909,3.333,0.909c0.909,0,1.742-0.151,2.5-0.53s1.439-0.833,2.121-1.363l-0.758-1.061
			C306.742,369.091,306.212,369.469,305.531,369.773z M318.712,357.348c-0.985-0.605-2.046-0.909-3.182-0.909
			c-1.137,0-2.197,0.303-3.183,0.909c-0.984,0.606-1.742,1.439-2.348,2.576c-0.606,1.136-0.909,2.5-0.909,4.091
			s0.303,2.954,0.909,4.091c0.605,1.136,1.363,1.97,2.348,2.575c0.985,0.606,2.046,0.909,3.183,0.909
			c1.136,0,2.196-0.303,3.182-0.909c0.984-0.605,1.818-1.439,2.424-2.575c0.606-1.137,0.909-2.5,0.909-4.091
			s-0.303-2.955-0.909-4.091C320.531,358.788,319.697,357.955,318.712,357.348z M319.773,367.273
			c-0.455,0.908-0.985,1.666-1.742,2.196c-0.758,0.53-1.592,0.758-2.5,0.758c-0.909,0-1.743-0.228-2.5-0.758
			c-0.758-0.53-1.288-1.212-1.743-2.196c-0.454-0.909-0.605-2.046-0.605-3.258s0.227-2.349,0.605-3.258
			c0.455-0.909,0.985-1.667,1.743-2.197c0.757-0.53,1.591-0.757,2.5-0.757c0.908,0,1.817,0.227,2.5,0.757
			c0.757,0.53,1.363,1.288,1.742,2.197c0.454,0.909,0.605,2.046,0.605,3.258C320.378,365.303,320.227,366.364,319.773,367.273z
			 M340.378,356.439c-0.833,0-1.666,0.228-2.424,0.758c-0.833,0.53-1.591,1.212-2.425,2.121c-0.303-0.909-0.757-1.591-1.363-2.121
			c-0.605-0.53-1.515-0.758-2.651-0.758c-0.833,0-1.591,0.228-2.424,0.758c-0.758,0.454-1.516,1.061-2.122,1.818h-0.075
			l-0.151-2.197h-1.288v14.394h1.591v-10.757c1.516-1.743,2.954-2.651,4.167-2.651c1.061,0,1.894,0.378,2.349,1.061
			c0.53,0.682,0.757,1.817,0.757,3.333v9.015h1.516v-10.757c0.758-0.909,1.515-1.516,2.196-1.97c0.683-0.455,1.364-0.682,1.97-0.682
			c1.062,0,1.895,0.378,2.349,1.061c0.53,0.682,0.758,1.817,0.758,3.333v9.015h1.516v-9.242c0-1.818-0.379-3.258-1.061-4.166
			C342.878,356.894,341.818,356.439,340.378,356.439z M357.197,357.273c-0.833-0.531-1.818-0.758-2.954-0.758
			c-1.061,0-2.121,0.303-3.03,0.909c-0.985,0.605-1.743,1.515-2.349,2.651c-0.606,1.136-0.909,2.5-0.909,4.015
			c0,1.591,0.303,2.955,0.909,4.091c0.605,1.137,1.439,1.97,2.424,2.576c0.985,0.606,2.121,0.909,3.409,0.909
			c1.061,0,1.895-0.151,2.651-0.455c0.683-0.303,1.364-0.605,1.97-0.984l-0.605-1.137c-0.53,0.379-1.137,0.683-1.743,0.909
			c-0.605,0.228-1.287,0.379-2.121,0.379c-0.984,0-1.894-0.228-2.727-0.758c-0.834-0.53-1.439-1.212-1.895-2.121
			c-0.454-0.833-0.682-1.894-0.758-3.105h10.304c0.075-0.151,0.075-0.379,0.075-0.606s0-0.379,0-0.606
			c0-1.363-0.227-2.575-0.682-3.561C358.712,358.56,358.031,357.803,357.197,357.273z M349.469,363.03
			c0.076-0.984,0.304-1.818,0.683-2.575c0.454-0.909,1.061-1.591,1.817-2.046c0.758-0.454,1.516-0.682,2.273-0.682
			c1.288,0,2.272,0.454,3.03,1.363c0.757,0.909,1.136,2.197,1.136,3.939H349.469z M374.545,356.439
			c-0.984,0-1.894,0.228-2.651,0.758c-0.758,0.454-1.516,1.137-2.272,1.818l0.075-3.106v-6.136h-1.591v21.438h1.591v-10.757
			c0.834-0.909,1.591-1.516,2.272-1.97c0.683-0.455,1.439-0.682,2.273-0.682c1.136,0,1.97,0.378,2.424,1.061
			c0.455,0.682,0.758,1.817,0.758,3.333v9.015h1.591v-9.242c0-1.818-0.379-3.258-1.061-4.166
			C377.197,356.894,376.061,356.439,374.545,356.439z M391.818,357.348c-0.984-0.605-2.045-0.909-3.182-0.909
			c-1.136,0-2.197,0.303-3.182,0.909c-0.985,0.606-1.818,1.439-2.349,2.576c-0.605,1.136-0.909,2.5-0.909,4.091
			s0.303,2.954,0.909,4.091c0.606,1.136,1.363,1.97,2.349,2.575c0.984,0.606,2.046,0.909,3.182,0.909
			c1.137,0,2.197-0.303,3.182-0.909c0.985-0.605,1.818-1.439,2.425-2.575c0.605-1.137,0.909-2.5,0.909-4.091
			s-0.304-2.955-0.909-4.091C393.561,358.788,392.803,357.955,391.818,357.348z M392.878,367.273
			c-0.454,0.908-0.984,1.666-1.742,2.196s-1.591,0.758-2.5,0.758s-1.742-0.228-2.5-0.758s-1.288-1.212-1.742-2.196
			c-0.455-0.909-0.606-2.046-0.606-3.258s0.228-2.349,0.606-3.258c0.454-0.909,0.984-1.667,1.742-2.197s1.591-0.757,2.5-0.757
			s1.742,0.227,2.5,0.757s1.364,1.288,1.742,2.197c0.455,0.909,0.606,2.046,0.606,3.258
			C393.485,365.303,393.257,366.364,392.878,367.273z M413.408,356.439c-0.833,0-1.666,0.228-2.424,0.758
			c-0.833,0.53-1.591,1.212-2.424,2.121c-0.304-0.909-0.758-1.591-1.364-2.121c-0.605-0.53-1.515-0.758-2.651-0.758
			c-0.833,0-1.591,0.228-2.424,0.758c-0.758,0.454-1.516,1.061-2.121,1.818l0,0l-0.152-2.197h-1.287v14.394h1.591v-10.757
			c1.515-1.743,2.954-2.651,4.166-2.651c1.061,0,1.895,0.378,2.349,1.061c0.53,0.682,0.758,1.817,0.758,3.333v9.015h1.515v-10.757
			c0.758-0.909,1.516-1.516,2.197-1.97c0.682-0.455,1.363-0.682,1.97-0.682c1.061,0,1.895,0.378,2.349,1.061
			c0.53,0.682,0.758,1.817,0.758,3.333v9.015h1.515v-9.242c0-1.818-0.379-3.258-1.061-4.166
			C415.985,356.894,414.848,356.439,413.408,356.439z M432.197,359.546c-0.454-0.985-1.061-1.742-1.894-2.272
			c-0.834-0.531-1.818-0.758-2.955-0.758c-1.061,0-2.121,0.303-3.03,0.909c-0.984,0.605-1.742,1.515-2.349,2.651
			c-0.605,1.136-0.908,2.5-0.908,4.015c0,1.591,0.303,2.955,0.908,4.091c0.606,1.137,1.439,1.97,2.425,2.576
			c0.984,0.606,2.121,0.909,3.409,0.909c1.061,0,1.894-0.151,2.651-0.455c0.682-0.303,1.363-0.605,1.97-0.984l-0.606-1.137
			c-0.53,0.379-1.136,0.683-1.742,0.909c-0.606,0.228-1.288,0.379-2.121,0.379c-0.984,0-1.894-0.228-2.728-0.758
			c-0.833-0.53-1.439-1.212-1.894-2.121c-0.455-0.833-0.682-1.894-0.758-3.105h10.303c0.076-0.151,0.076-0.379,0.076-0.606
			s0-0.379,0-0.606C432.878,361.743,432.652,360.53,432.197,359.546z M422.5,363.03c0.075-0.984,0.303-1.818,0.682-2.575
			c0.454-0.909,1.061-1.591,1.818-2.046c0.757-0.454,1.515-0.682,2.272-0.682c1.288,0,2.272,0.454,3.03,1.363
			s1.136,2.197,1.136,3.939H422.5z"/>
	</g>
</g>
</svg>
