<?xml version="1.0" encoding="utf-8"?>
<!-- Generator: Adobe Illustrator 16.0.0, SVG Export Plug-In . SVG Version: 6.00 Build 0)  -->
<!DOCTYPE svg PUBLIC "-//W3C//DTD SVG 1.1 Tiny//EN" "http://www.w3.org/Graphics/SVG/1.1/DTD/svg11-tiny.dtd">
<svg version="1.1" baseProfile="tiny" xmlns="http://www.w3.org/2000/svg" xmlns:xlink="http://www.w3.org/1999/xlink" x="0px"
	 y="0px" width="24px" height="24px" viewBox="0 0 24 24" xml:space="preserve">
<g id="Layer_1">
	<g>
		<path d="M8.211,4.43L19.221,1v15.326c0,1.143-0.145,2.005-0.436,2.587c-0.291,0.58-0.783,1.06-1.48,1.438
			c-0.695,0.379-1.482,0.567-2.357,0.567c-1.006,0-1.809-0.288-2.407-0.864c-0.6-0.576-0.899-1.321-0.899-2.234
			c0-0.922,0.355-1.718,1.064-2.385c0.71-0.67,1.628-1.004,2.753-1.004c0.367,0,0.693,0.033,0.975,0.098s0.74,0.23,1.377,0.497
			V5.011L9.58,7.57v11.563c0,1.116-0.147,1.984-0.443,2.607c-0.295,0.622-0.802,1.118-1.521,1.486
			c-0.72,0.369-1.503,0.554-2.352,0.554c-1.005,0-1.8-0.283-2.386-0.852C2.293,22.363,2,21.623,2,20.711
			c0-0.969,0.351-1.782,1.051-2.441c0.701-0.659,1.618-0.989,2.753-0.989c0.719,0,1.521,0.212,2.407,0.636V4.43z"/>
	</g>
</g>
<g id="Layer_2" display="none">
	<g display="inline">
		<g>
			<path d="M15.922,18.2l-4.12-3.806H9.204V9.269h2.606l4.112-3.796V18.2z"/>
		</g>
	</g>
</g>
</svg>
